<svg width="222" height="222" viewBox="0 0 222 222" fill="none" xmlns="http://www.w3.org/2000/svg">
<circle cx="111" cy="111" r="91" fill="#9FD0F9"/>
<path fill-rule="evenodd" clip-rule="evenodd" d="M108.375 113.353C120.082 113.353 129.466 103.847 129.466 91.9891C129.466 80.1307 120.082 70.625 108.375 70.625C96.6681 70.625 87.2838 80.1307 87.2838 91.9891C87.2838 103.847 96.6681 113.353 108.375 113.353ZM108.375 123.815C91.1805 123.815 76.5 126.564 76.5 137.547C76.5 148.527 91.0911 151.375 108.375 151.375C125.565 151.375 140.25 148.626 140.25 137.642C140.25 126.659 125.659 123.815 108.375 123.815ZM152.566 100.748H157.679C159.784 100.748 161.5 102.489 161.5 104.623C161.5 106.757 159.784 108.497 157.679 108.497H152.566V113.501C152.566 115.635 150.855 117.375 148.746 117.375C146.641 117.375 144.925 115.635 144.925 113.501V108.497H139.821C137.712 108.497 136 106.757 136 104.623C136 102.489 137.712 100.748 139.821 100.748H144.925V95.7494C144.925 93.6151 146.641 91.875 148.746 91.875C150.855 91.875 152.566 93.6151 152.566 95.7494V100.748Z" fill="white"/>
<path d="M222 111C222 172.304 172.304 222 111 222C49.6964 222 0 172.304 0 111C0 49.6964 49.6964 0 111 0C172.304 0 222 49.6964 222 111ZM6.98691 111C6.98691 168.445 53.5552 215.013 111 215.013C168.445 215.013 215.013 168.445 215.013 111C215.013 53.5552 168.445 6.98691 111 6.98691C53.5552 6.98691 6.98691 53.5552 6.98691 111Z" fill="white"/>
<path d="M146.666 5.88621C167.099 12.8193 185.069 25.5575 198.376 42.5424C211.683 59.5272 219.752 80.0224 221.595 101.521L214.633 102.117C212.906 81.9723 205.346 62.7672 192.876 46.8514C180.406 30.9357 163.568 18.9993 144.421 12.5026L146.666 5.88621Z" fill="#9FD0F9"/>
</svg>
