<svg width="74" height="74" viewBox="0 0 74 74" fill="none" xmlns="http://www.w3.org/2000/svg">
<path d="M0 9.25C0 6.79675 0.974551 4.44397 2.70926 2.70926C4.44397 0.974551 6.79675 0 9.25 0L64.75 0C67.2033 0 69.556 0.974551 71.2907 2.70926C73.0254 4.44397 74 6.79675 74 9.25V46.25C74 48.7033 73.0254 51.056 71.2907 52.7907C69.556 54.5254 67.2033 55.5 64.75 55.5H20.4148C19.1882 55.5003 18.012 55.9877 17.1449 56.8551L3.94975 70.0502C3.6266 70.3742 3.21461 70.595 2.76592 70.6847C2.31722 70.7745 1.852 70.729 1.42912 70.5543C1.00625 70.3795 0.644734 70.0831 0.390337 69.7028C0.135941 69.3225 9.71938e-05 68.8752 0 68.4176L0 9.25ZM16.1875 13.875C15.5742 13.875 14.986 14.1186 14.5523 14.5523C14.1186 14.986 13.875 15.5742 13.875 16.1875C13.875 16.8008 14.1186 17.389 14.5523 17.8227C14.986 18.2564 15.5742 18.5 16.1875 18.5H57.8125C58.4258 18.5 59.014 18.2564 59.4477 17.8227C59.8814 17.389 60.125 16.8008 60.125 16.1875C60.125 15.5742 59.8814 14.986 59.4477 14.5523C59.014 14.1186 58.4258 13.875 57.8125 13.875H16.1875ZM16.1875 25.4375C15.5742 25.4375 14.986 25.6811 14.5523 26.1148C14.1186 26.5485 13.875 27.1367 13.875 27.75C13.875 28.3633 14.1186 28.9515 14.5523 29.3852C14.986 29.8189 15.5742 30.0625 16.1875 30.0625H57.8125C58.4258 30.0625 59.014 29.8189 59.4477 29.3852C59.8814 28.9515 60.125 28.3633 60.125 27.75C60.125 27.1367 59.8814 26.5485 59.4477 26.1148C59.014 25.6811 58.4258 25.4375 57.8125 25.4375H16.1875ZM16.1875 37C15.5742 37 14.986 37.2436 14.5523 37.6773C14.1186 38.111 13.875 38.6992 13.875 39.3125C13.875 39.9258 14.1186 40.514 14.5523 40.9477C14.986 41.3814 15.5742 41.625 16.1875 41.625H39.3125C39.9258 41.625 40.514 41.3814 40.9477 40.9477C41.3814 40.514 41.625 39.9258 41.625 39.3125C41.625 38.6992 41.3814 38.111 40.9477 37.6773C40.514 37.2436 39.9258 37 39.3125 37H16.1875Z" fill="#108AEE"/>
</svg>
