<svg width="160" height="160" viewBox="0 0 160 160" fill="none" xmlns="http://www.w3.org/2000/svg">
<g filter="url(#filter0_d)">
<rect x="30" y="26" width="100" height="100" rx="20" fill="white"/>
</g>
<path d="M51.4292 63.1559C51.4292 61.7763 52.793 60.811 54.0942 61.2697L72.3095 67.6912C73.1094 67.9732 73.6445 68.7292 73.6445 69.5774V82.8191C73.6445 83.6674 73.1094 84.4233 72.3095 84.7054L54.0942 91.1269C52.793 91.5856 51.4292 90.6203 51.4292 89.2407V63.1559Z" fill="#108AEE"/>
<rect x="67.2969" y="57.1566" width="39.6702" height="36.4966" rx="2" fill="#108AEE"/>
<path d="M95.8572 73.3951H89.6859V66.6775H84.5277V73.3951H78.4023V79.0521H84.5277V85.7192H89.6859V79.0521H95.8572V73.3951Z" fill="white"/>
<defs>
<filter id="filter0_d" x="0" y="0" width="160" height="160" filterUnits="userSpaceOnUse" color-interpolation-filters="sRGB">
<feFlood flood-opacity="0" result="BackgroundImageFix"/>
<feColorMatrix in="SourceAlpha" type="matrix" values="0 0 0 0 0 0 0 0 0 0 0 0 0 0 0 0 0 0 127 0" result="hardAlpha"/>
<feOffset dy="4"/>
<feGaussianBlur stdDeviation="15"/>
<feComposite in2="hardAlpha" operator="out"/>
<feColorMatrix type="matrix" values="0 0 0 0 0.0627451 0 0 0 0 0.541176 0 0 0 0 0.933333 0 0 0 0.4 0"/>
<feBlend mode="normal" in2="BackgroundImageFix" result="effect1_dropShadow"/>
<feBlend mode="normal" in="SourceGraphic" in2="effect1_dropShadow" result="shape"/>
</filter>
</defs>
</svg>
