<svg width="173" height="36" viewBox="0 0 173 36" fill="none" xmlns="http://www.w3.org/2000/svg">
<path d="M59.52 8.96V15.992H52.512V8.96H49.224V26H52.512V19.016H59.52V26H62.808V8.96H59.52ZM70.9673 13.28C67.7753 13.28 64.6553 15.56 64.6553 19.76C64.6553 23.912 67.7273 26.24 71.1593 26.24C73.3673 26.24 75.1673 25.328 76.1993 24.032L74.7353 22.472C73.8233 23.264 72.7433 23.6 71.5193 23.6C69.6473 23.6 68.1593 22.712 67.7033 21.008H77.0393C77.7353 15.512 74.1353 13.28 70.9673 13.28ZM70.9913 15.992C72.5033 15.992 73.9913 16.88 74.1833 18.656H67.6553C68.0633 16.856 69.5033 15.992 70.9913 15.992ZM84.3662 26.24C86.5982 26.24 88.0382 25.016 88.3502 24.32H88.4222V26H91.6382V13.52H88.4222V15.2H88.3502C88.0382 14.504 86.5982 13.28 84.3662 13.28C81.4622 13.28 78.3662 15.44 78.3662 19.76C78.3662 24.08 81.4622 26.24 84.3662 26.24ZM85.0142 23.36C83.2142 23.36 81.5342 22.088 81.5342 19.76C81.5342 17.432 83.2142 16.16 85.0142 16.16C86.8142 16.16 88.4942 17.408 88.4942 19.76C88.4942 22.112 86.8142 23.36 85.0142 23.36ZM94.0834 26H97.2994V8.96H94.0834V26ZM105.587 23.288C104.531 23.288 104.171 22.664 104.171 22.016V16.088H106.739V13.52H104.171V10.328H100.931V13.52H99.1553V16.088H100.931V22.544C100.931 25.112 102.467 26.144 104.579 26.144C105.371 26.144 106.283 26 106.763 25.568V23.096C106.307 23.24 105.875 23.288 105.587 23.288ZM115.74 13.28C113.868 13.28 112.62 14.12 111.924 15.224V8.96H108.708V26H111.924V19.184C111.924 17.36 112.932 16.16 114.588 16.16C116.268 16.16 117.252 17.36 117.252 19.184V26H120.468V18.656C120.468 14.864 118.308 13.28 115.74 13.28ZM128.888 26.24C131.096 26.24 133.064 25.184 134.264 23.168L131.912 21.656C131.264 22.64 130.208 23.336 128.912 23.336C127.112 23.336 125.48 21.992 125.48 19.76C125.48 17.528 127.112 16.184 128.912 16.184C130.208 16.184 131.264 16.88 131.912 17.864L134.264 16.352C133.064 14.312 131.096 13.28 128.888 13.28C125.6 13.28 122.312 15.536 122.312 19.76C122.312 23.984 125.6 26.24 128.888 26.24ZM141.802 26.24C145.042 26.24 148.378 23.984 148.378 19.76C148.378 15.536 145.042 13.28 141.802 13.28C138.538 13.28 135.226 15.536 135.226 19.76C135.226 23.984 138.538 26.24 141.802 26.24ZM141.802 23.336C140.002 23.336 138.394 21.992 138.394 19.76C138.394 17.528 140.002 16.184 141.802 16.184C143.602 16.184 145.186 17.528 145.186 19.76C145.186 21.992 143.602 23.336 141.802 23.336ZM157.248 13.28C155.376 13.28 154.128 14.12 153.432 15.224V13.52H150.216V26H153.432V19.184C153.432 17.36 154.44 16.16 156.096 16.16C157.776 16.16 158.76 17.36 158.76 19.184V26H161.976V18.656C161.976 14.864 159.816 13.28 157.248 13.28ZM170.203 11.168C170.419 11.168 170.995 11.144 171.595 11.432V8.912C170.899 8.504 170.011 8.432 169.363 8.432C167.707 8.432 165.163 9.032 165.163 12.704V13.52H163.579V16.088H165.163V26H168.379V16.088H171.595V13.52H168.379V13.064C168.379 11.84 168.979 11.168 170.203 11.168Z" fill="black"/>
<path d="M0 9.82571C0 8.44611 1.36384 7.4808 2.66496 7.93949L12.665 11.4648C13.4649 11.7469 14 12.5028 14 13.3511V20.6489C14 21.4972 13.4649 22.2531 12.665 22.5352L2.66496 26.0605C1.36384 26.5192 0 25.5539 0 24.1743V9.82571Z" fill="#108AEE"/>
<rect x="10" y="5" width="25" height="23" rx="2" fill="#108AEE"/>
<path d="M28 15.2334H24.1108V11H20.8602V15.2334H17V18.7984H20.8602V23H24.1108V18.7984H28V15.2334Z" fill="white"/>
</svg>
