<svg width="100" height="99" viewBox="0 0 100 99" fill="none" xmlns="http://www.w3.org/2000/svg">
<path d="M6.25 29.3846C6.25 23.4087 11.15 18.5587 17.1875 18.5587H82.8125C88.85 18.5587 93.75 23.4087 93.75 29.3846V42.9139C92.6225 42.1222 91.3789 41.5067 90.0625 41.0889L87.5 40.2847V29.3846C87.5 28.1541 87.0061 26.974 86.1271 26.1039C85.248 25.2338 84.0557 24.7449 82.8125 24.7449H17.1875C15.9443 24.7449 14.752 25.2338 13.8729 26.1039C12.9939 26.974 12.5 28.1541 12.5 29.3846V69.5951C12.5 72.1562 14.6 74.2347 17.1875 74.2347H31.25V68.0485C31.25 66.4078 31.9085 64.8343 33.0806 63.6742C34.2527 62.5141 35.8424 61.8623 37.5 61.8623H62.5C64.1576 61.8623 65.7473 62.5141 66.9194 63.6742C68.0915 64.8343 68.75 66.4078 68.75 68.0485V69.3167C66.8914 69.2842 65.0542 69.7127 63.4057 70.563C61.7573 71.4134 60.3501 72.6587 59.3125 74.1852L56.3062 78.5527L55.8563 79.2951L55.775 79.4312C55.6008 79.7534 55.4423 80.0837 55.3 80.421H17.1875C14.2867 80.421 11.5047 79.2804 9.45352 77.2501C7.40234 75.2199 6.25 72.4663 6.25 69.5951V29.3846Z" fill="#108AEE"/>
<path d="M93.2508 52.6138C93.5758 54.0366 93.7446 55.5337 93.7508 57.0988V57.272C93.7321 62.6788 91.7821 68.9083 87.9008 75.9544C87.0883 77.4391 86.2633 78.8248 85.4196 80.1116C81.0633 86.7989 76.3696 90.9189 71.3321 92.4778C70.1851 92.8288 68.967 92.8869 67.7912 92.6468C66.6154 92.4067 65.5201 91.8761 64.6071 91.1045L64.1071 90.6529L62.1758 88.7352C61.3613 87.9055 60.8349 86.8406 60.6731 85.6949C60.5113 84.5492 60.7224 83.3823 61.2758 82.3634L61.5633 81.9056L64.4821 77.6618C64.9636 76.9506 65.6265 76.3781 66.4036 76.0022C67.1807 75.6263 68.0444 75.4604 68.9071 75.5214C69.0946 75.5338 69.2883 75.5647 69.4821 75.6018L69.9946 75.7441L75.3758 77.5195C77.5258 75.9111 79.3133 73.882 80.7508 71.4447C81.9821 69.3537 82.7821 67.2319 83.1633 65.079L83.3196 64.0026L78.8383 59.796C78.1129 59.0991 77.5969 58.2167 77.3475 57.247C77.0982 56.2772 77.1253 55.258 77.4258 54.3026L77.6133 53.7768L79.6508 49.032C80.0703 47.9806 80.8475 47.1073 81.8483 46.5629C82.8491 46.0185 84.0106 45.8371 85.1321 46.0502L85.6133 46.1739L88.1571 46.9782C90.6883 47.7824 92.6196 49.9228 93.2446 52.6076L93.2508 52.6138Z" fill="#108AEE"/>
<path d="M62.5 43.3036C62.5 46.585 61.183 49.732 58.8388 52.0522C56.4946 54.3725 53.3152 55.6761 50 55.6761C46.6848 55.6761 43.5054 54.3725 41.1612 52.0522C38.817 49.732 37.5 46.585 37.5 43.3036C37.5 40.0222 38.817 36.8752 41.1612 34.555C43.5054 32.2347 46.6848 30.9312 50 30.9312C53.3152 30.9312 56.4946 32.2347 58.8388 34.555C61.183 36.8752 62.5 40.0222 62.5 43.3036Z" fill="#108AEE"/>
</svg>
